/* XPM */
static char * me_tv_recording_xpm[] = {
"32 32 624 2",
"  	c None",
". 	c #C3C3C3",
"+ 	c #C9C9C9",
"@ 	c #A7A7A8",
"# 	c #B2B2B3",
"$ 	c #B7B8B8",
"% 	c #C2C2C2",
"& 	c #D3D3D3",
"* 	c #CFCFCE",
"= 	c #D5D5D5",
"- 	c #D5D6D7",
"; 	c #D4D5D7",
"> 	c #D2D4DA",
", 	c #CDD1DB",
"' 	c #C4C9D6",
") 	c #D0D2D7",
"! 	c #C6C6C7",
"~ 	c #CBCCCD",
"{ 	c #CFD1D4",
"] 	c #CFD2D7",
"^ 	c #D5D8E0",
"/ 	c #DBDEE7",
"( 	c #D8DDE9",
"_ 	c #CED5E5",
": 	c #C4CBE1",
"< 	c #BFC9E4",
"[ 	c #B8C4E5",
"} 	c #B6C3E7",
"| 	c #B5C4EA",
"1 	c #B4C3EC",
"2 	c #B3C3F0",
"3 	c #B2C2F3",
"4 	c #A3B3EE",
"5 	c #9EAADF",
"6 	c #EBECEB",
"7 	c #C1C1C2",
"8 	c #C8C8C9",
"9 	c #DADADB",
"0 	c #D7D7D8",
"a 	c #D9D9DC",
"b 	c #D8DAE0",
"c 	c #D1D6E3",
"d 	c #D0D6E5",
"e 	c #CDD4E8",
"f 	c #C5CFE7",
"g 	c #BAC6E5",
"h 	c #B4C2E7",
"i 	c #B3C2EC",
"j 	c #B4C4EE",
"k 	c #B4C4F0",
"l 	c #B4C4F1",
"m 	c #B6C6F3",
"n 	c #B9CAF5",
"o 	c #C1D1F9",
"p 	c #C5D4FA",
"q 	c #CBD9FB",
"r 	c #CEDBFB",
"s 	c #D6E1FD",
"t 	c #D5DFFE",
"u 	c #B2C0F7",
"v 	c #9BA8E6",
"w 	c #E9EAE9",
"x 	c #B7B7B8",
"y 	c #EBECEF",
"z 	c #D3DAED",
"A 	c #C5D1EF",
"B 	c #BFCBEC",
"C 	c #B1C2EF",
"D 	c #B3C4F3",
"E 	c #B6C6F5",
"F 	c #BBCBF7",
"G 	c #C0D1F9",
"H 	c #C9D8FC",
"I 	c #D1DEFD",
"J 	c #D6E2FE",
"K 	c #D8E3FE",
"L 	c #DEE8FE",
"M 	c #E1E9FF",
"N 	c #E2EAFF",
"O 	c #E3ECFF",
"P 	c #E2EBFF",
"Q 	c #E0E9FF",
"R 	c #DFE9FF",
"S 	c #DFE7FF",
"T 	c #D8E1FE",
"U 	c #B6C2F5",
"V 	c #9EA9E5",
"W 	c #E8E9EA",
"X 	c #B0B0B1",
"Y 	c #E2E4EB",
"Z 	c #B4C4F2",
"` 	c #BFD0F8",
" .	c #CEDBFA",
"..	c #D3DFFD",
"+.	c #D4E0FD",
"@.	c #D6E1FE",
"#.	c #D7E1FE",
"$.	c #DBE5FE",
"%.	c #DDE7FE",
"&.	c #DFE7FE",
"*.	c #DFE8FE",
"=.	c #DCE6FE",
"-.	c #DDE7FF",
";.	c #DDE6FF",
">.	c #DCE6FF",
",.	c #DAE5FE",
"'.	c #D7E1FF",
").	c #D2DCFE",
"!.	c #B8C4F7",
"~.	c #97A4E4",
"{.	c #E4E5E7",
"].	c #AAAAAB",
"^.	c #DFE0E2",
"/.	c #B6C5F1",
"(.	c #D0DDFE",
"_.	c #DEE7FF",
":.	c #D8E2FE",
"<.	c #D7E0FE",
"[.	c #D3DEFE",
"}.	c #D2DDFE",
"|.	c #D1DCFE",
"1.	c #D4DFFE",
"2.	c #D3E0FF",
"3.	c #D3DFFF",
"4.	c #D2DEFE",
"5.	c #CFDBFF",
"6.	c #CED8FE",
"7.	c #BAC7F9",
"8.	c #94A2E7",
"9.	c #D9DAE0",
"0.	c #A6A6A7",
"a.	c #DAD9DA",
"b.	c #B7C4ED",
"c.	c #C4D4FD",
"d.	c #DBE6FE",
"e.	c #DBE6FF",
"f.	c #D7E2FE",
"g.	c #D4E0FE",
"h.	c #CFDBFE",
"i.	c #CDD9FD",
"j.	c #CDD9FE",
"k.	c #CCD8FE",
"l.	c #CDDAFE",
"m.	c #CEDBFE",
"n.	c #CEDAFE",
"o.	c #CCDAFF",
"p.	c #CAD9FF",
"q.	c #C9D7FF",
"r.	c #C8D6FF",
"s.	c #C8D5FF",
"t.	c #C7D2FF",
"u.	c #BDC9FC",
"v.	c #9BAAEA",
"w.	c #D3D6DF",
"x.	c #A0A0A1",
"y.	c #CFCECF",
"z.	c #BAC4E8",
"A.	c #B6CAFA",
"B.	c #CEDCFD",
"C.	c #D0DEFE",
"D.	c #CDDBFE",
"E.	c #CBD9FD",
"F.	c #CAD7FE",
"G.	c #C6D5FE",
"H.	c #C7D4FE",
"I.	c #C6D3FE",
"J.	c #C5D2FE",
"K.	c #C4D2FE",
"L.	c #C3D2FE",
"M.	c #C4D2FF",
"N.	c #C4D1FE",
"O.	c #C2D0FF",
"P.	c #C1CFFE",
"Q.	c #C1D0FF",
"R.	c #BFCFFE",
"S.	c #BECDFE",
"T.	c #BCC9FE",
"U.	c #BAC7FE",
"V.	c #B7C5FC",
"W.	c #9CACEF",
"X.	c #C8CEE3",
"Y.	c #9D9D9D",
"Z.	c #C7C7C8",
"`.	c #BBC5E5",
" +	c #ADC2F7",
".+	c #C1D1FC",
"++	c #C5D4FE",
"@+	c #C4D3FE",
"#+	c #C1D1FE",
"$+	c #C0CEFE",
"%+	c #BDCDFE",
"&+	c #BCCBFE",
"*+	c #BBCAFE",
"=+	c #BBCBFF",
"-+	c #B8C6FE",
";+	c #B6C4FE",
">+	c #B4C4FE",
",+	c #B2C3FD",
"'+	c #B1C0FD",
")+	c #B1BFFC",
"!+	c #B1BEFC",
"~+	c #ADBBF9",
"{+	c #93A4F0",
"]+	c #B6BEE4",
"^+	c #9F9FA0",
"/+	c #C0C0C0",
"(+	c #C8CDE0",
"_+	c #A1B6F5",
":+	c #B5C8FD",
"<+	c #BACBFE",
"[+	c #BBCCFE",
"}+	c #B9C9FE",
"|+	c #B9C8FE",
"1+	c #B6C6FE",
"2+	c #B5C5FE",
"3+	c #B3C2FD",
"4+	c #B3C1FD",
"5+	c #B2C0FC",
"6+	c #B0BDFD",
"7+	c #ADBBFC",
"8+	c #ACBAFB",
"9+	c #AAB8FB",
"0+	c #A8B6FB",
"a+	c #A6B5FB",
"b+	c #A3B2F9",
"c+	c #9EADF9",
"d+	c #9DACF9",
"e+	c #9DACF8",
"f+	c #9EACF7",
"g+	c #9EABF5",
"h+	c #8B9CEE",
"i+	c #A0AAE1",
"j+	c #E3E4E6",
"k+	c #A1A1A2",
"l+	c #BDBCBC",
"m+	c #CFD2DD",
"n+	c #9BAFF4",
"o+	c #AEC1FD",
"p+	c #B3C4FE",
"q+	c #B1C2FE",
"r+	c #AFBFFD",
"s+	c #AEBEFD",
"t+	c #ACBCFD",
"u+	c #ABB9FB",
"v+	c #A9B7FA",
"w+	c #A7B5FB",
"x+	c #A6B4FB",
"y+	c #A4B2FA",
"z+	c #A3B0F9",
"A+	c #A1AEF7",
"B+	c #9EADF8",
"C+	c #9AA9F7",
"D+	c #97A7F6",
"E+	c #92A3F7",
"F+	c #91A1F6",
"G+	c #90A1F5",
"H+	c #91A1F4",
"I+	c #92A1F2",
"J+	c #8898ED",
"K+	c #97A2DD",
"L+	c #E2E3E5",
"M+	c #A0A0A0",
"N+	c #B8B8B7",
"O+	c #D2D4D9",
"P+	c #95A6F0",
"Q+	c #9EB0FA",
"R+	c #A3B2FC",
"S+	c #A2B1FC",
"T+	c #A1B0FB",
"U+	c #A1B0FA",
"V+	c #A1AFF9",
"W+	c #9EADF7",
"X+	c #9CAAF5",
"Y+	c #9CABF5",
"Z+	c #9AA9F9",
"`+	c #98A8F9",
" @	c #98A7F8",
".@	c #94A4F5",
"+@	c #91A1F2",
"@@	c #8D9EF4",
"#@	c #899BF3",
"$@	c #8799F2",
"%@	c #8396F1",
"&@	c #8093F0",
"*@	c #7F91EF",
"=@	c #7F8FED",
"-@	c #8291EB",
";@	c #7D8DEB",
">@	c #8591D8",
",@	c #D8D9DF",
"'@	c #B6B5B5",
")@	c #D2D2D4",
"!@	c #909FEC",
"~@	c #90A3F9",
"{@	c #95A5F9",
"]@	c #95A5F8",
"^@	c #96A6F9",
"/@	c #97A7F7",
"(@	c #94A5F6",
"_@	c #92A2F4",
":@	c #92A0F2",
"<@	c #8E9FF5",
"[@	c #8B9CF5",
"}@	c #899AF3",
"|@	c #8798F0",
"1@	c #8697EF",
"2@	c #8192F0",
"3@	c #7B8DEE",
"4@	c #798BED",
"5@	c #7587EC",
"6@	c #7184EB",
"7@	c #7083E9",
"8@	c #6F82E8",
"9@	c #7282E5",
"0@	c #7182E4",
"a@	c #7684D5",
"b@	c #CFD1DF",
"c@	c #B0B0B0",
"d@	c #D0D0D1",
"e@	c #909DE3",
"f@	c #8294F4",
"g@	c #8799F6",
"h@	c #889AF5",
"i@	c #899BF5",
"j@	c #8798F3",
"k@	c #8496F1",
"l@	c #8293EF",
"m@	c #8292ED",
"n@	c #8191EC",
"o@	c #7C8EEF",
"p@	c #7A8CEE",
"q@	c #798BEC",
"r@	c #788AEB",
"s@	c #7787E9",
"t@	c #7284EA",
"u@	c #6C7EE8",
"v@	c #6A7DE8",
"w@	c #6779E6",
"x@	c #6377E4",
"y@	c #5F72E2",
"z@	c #5F71E0",
"A@	c #5F71DC",
"B@	c #5F70D9",
"C@	c #6576D9",
"D@	c #BCC2E0",
"E@	c #AAAAAA",
"F@	c #CDCDCD",
"G@	c #949FDC",
"H@	c #7487EF",
"I@	c #7A8EF2",
"J@	c #7B8EF0",
"K@	c #798DF0",
"L@	c #778AEF",
"M@	c #7487EC",
"N@	c #7386EA",
"O@	c #7486E8",
"P@	c #7384E6",
"Q@	c #6D81E8",
"R@	c #6C7EE7",
"S@	c #697BE5",
"T@	c #6678E2",
"U@	c #6174E2",
"V@	c #6072E3",
"W@	c #5A6DE0",
"X@	c #5669DD",
"Y@	c #5165DA",
"Z@	c #5366D9",
"`@	c #5164D6",
" #	c #5163D1",
".#	c #5B6DD7",
"+#	c #ADB5DB",
"@#	c #A8A8A8",
"##	c #C9C9C8",
"$#	c #9AA3D6",
"%#	c #6579E6",
"&#	c #6A7FEA",
"*#	c #687EEA",
"=#	c #677DE9",
"-#	c #667BE7",
";#	c #6274E1",
">#	c #6173DF",
",#	c #5E72E2",
"'#	c #5C6FE1",
")#	c #5A6DDE",
"!#	c #596ADB",
"~#	c #5467D9",
"{#	c #5265DB",
"]#	c #4E61DA",
"^#	c #4C5FD9",
"/#	c #475BD7",
"(#	c #455AD5",
"_#	c #4458D3",
":#	c #4156D0",
"<#	c #4256CC",
"[#	c #4253C8",
"}#	c #5062D0",
"|#	c #A4ABD4",
"1#	c #E9E9E8",
"2#	c #A7A7A7",
"3#	c #C5C5C6",
"4#	c #98A0D3",
"5#	c #5669DF",
"6#	c #5B71E5",
"7#	c #5A70E5",
"8#	c #596FE2",
"9#	c #586DE0",
"0#	c #576ADD",
"a#	c #5669DB",
"b#	c #5568D9",
"c#	c #5467D7",
"d#	c #5064DB",
"e#	c #4D61DA",
"f#	c #4B5FD6",
"g#	c #4A5ED4",
"h#	c #485CD2",
"i#	c #4559D4",
"j#	c #4155D2",
"k#	c #3D51CF",
"l#	c #384CCD",
"m#	c #3549CB",
"n#	c #3448C8",
"o#	c #3346C5",
"p#	c #3446C2",
"q#	c #3546BF",
"r#	c #4A5CCB",
"s#	c #99A0CB",
"t#	c #EBECEA",
"u#	c #A4A4A5",
"v#	c #C3C2C0",
"w#	c #A0A5CC",
"x#	c #4759D3",
"y#	c #4A60DE",
"z#	c #4B60DC",
"A#	c #4A5DD9",
"B#	c #475CD6",
"C#	c #465BD5",
"D#	c #4559D2",
"E#	c #4457CF",
"F#	c #4355CC",
"G#	c #3D51D0",
"H#	c #3B4FCE",
"I#	c #394DCC",
"J#	c #384CCA",
"K#	c #374AC7",
"L#	c #3449C9",
"M#	c #3145C7",
"N#	c #2E42C5",
"O#	c #273AC0",
"P#	c #2537BD",
"Q#	c #2436BC",
"R#	c #2335B9",
"S#	c #2334B5",
"T#	c #2637B5",
"U#	c #4455C7",
"V#	c #878EC0",
"W#	c #EAEBEA",
"X#	c #A4A4A4",
"Y#	c #BDBDBB",
"Z#	c #ACB0CC",
"`#	c #4354C9",
" $	c #3B51D4",
".$	c #3B50D2",
"+$	c #3B50D1",
"@$	c #384DCD",
"#$	c #374CCB",
"$$	c #364AC8",
"%$	c #3547C4",
"&$	c #3445C1",
"*$	c #2F43C6",
"=$	c #2D41C4",
"-$	c #2C3EC1",
";$	c #2B3CBE",
">$	c #293BBD",
",$	c #273ABE",
"'$	c #2234BB",
")$	c #FFFFFF",
"!$	c #8A90BD",
"~$	c #EAEAEA",
"{$	c #A3A3A4",
"]$	c #B3B3B3",
"^$	c #BCBECB",
"/$	c #4856C1",
"($	c #2A3FC7",
"_$	c #2B3EC6",
":$	c #2A3EC4",
"<$	c #293CC1",
"[$	c #2739BD",
"}$	c #2638BB",
"|$	c #2435B7",
"1$	c #1F31B7",
"2$	c #1E30B7",
"3$	c #1D2FB5",
"4$	c #1C2EB5",
"5$	c #182AB4",
"6$	c #1527B3",
"7$	c #1424B0",
"8$	c #FF0000",
"9$	c #DEDDDC",
"0$	c #AFAFB0",
"a$	c #C2C3CA",
"b$	c #5662BF",
"c$	c #1F32BF",
"d$	c #1F31BB",
"e$	c #1E30BA",
"f$	c #1C2EB7",
"g$	c #1B2DB4",
"h$	c #182AB1",
"i$	c #1526AE",
"j$	c #1120AE",
"k$	c #0D1DAF",
"l$	c #0D1EAF",
"m$	c #0E1FAE",
"n$	c #0E1EAF",
"o$	c #1624AF",
"p$	c #2A35AC",
"q$	c #ABABAB",
"r$	c #6069BC",
"s$	c #0C1DB2",
"t$	c #0F20B1",
"u$	c #0D1EB0",
"v$	c #0E1EAE",
"w$	c #0F1FAF",
"x$	c #1221B0",
"y$	c #1E2BB0",
"z$	c #2A35AF",
"A$	c #3D46AC",
"B$	c #555CAC",
"C$	c #7375A7",
"D$	c #8989A4",
"E$	c #9F9CA3",
"F$	c #C5C4C3",
"G$	c #6D75B9",
"H$	c #0715B1",
"I$	c #1726B6",
"J$	c #3F4BBB",
"K$	c #5860B8",
"L$	c #696EB0",
"M$	c #797CAB",
"N$	c #8D8DA9",
"O$	c #9796A5",
"P$	c #9F9C9E",
"Q$	c #A19C9A",
"R$	c #9D9996",
"S$	c #999594",
"T$	c #A5A5A5",
"U$	c #C2C2C1",
"V$	c #B2B4C5",
"W$	c #AAACC7",
"X$	c #B9B9C7",
"Y$	c #B9B8B8",
"Z$	c #B3B2B0",
"`$	c #AFACAA",
" %	c #A8A6A4",
".%	c #A5A2A1",
"+%	c #9D9998",
"@%	c #938F8E",
"#%	c #8E8B8A",
"$%	c #8B8889",
"%%	c #8D8B8C",
"&%	c #A3A3A3",
"*%	c #BDBDBE",
"=%	c #C4C4C3",
"-%	c #BDBDBD",
";%	c #BBBBBB",
">%	c #B7B6B7",
",%	c #AEACAD",
"'%	c #A4A2A3",
")%	c #919091",
"!%	c #828182",
"~%	c #7D7C7C",
"{%	c #808080",
"]%	c #888889",
"^%	c #959596",
"/%	c #A2A2A2",
"(%	c #A8A8AA",
"_%	c #B1B1B3",
":%	c #B5B4B6",
"<%	c #8B8B8D",
"[%	c #909191",
"}%	c #A9AAAA",
"|%	c #959595",
"1%	c #818181",
"2%	c #797979",
"3%	c #8A8A8B",
"4%	c #9E9EA0",
"5%	c #ABABAC",
"6%	c #B8B8B8",
"7%	c #BBBBBC",
"8%	c #BCBCBC",
"9%	c #8E8E8F",
"0%	c #9E9E9E",
"a%	c #939393",
"b%	c #A5A5A7",
"c%	c #B0B0B2",
"d%	c #BABABC",
"e%	c #C0C0C1",
"f%	c #C9C9CA",
"g%	c #CCCCCD",
"h%	c #1B1B1E",
"i%	c #9A9A9B",
"j%	c #ADADAF",
"k%	c #D3D3D5",
"l%	c #D7D7D7",
"m%	c #D3D3D4",
"n%	c #7F7F80",
"o%	c #AEAEB0",
"p%	c #B7B7B9",
"q%	c #BEBEBF",
"r%	c #CECED1",
"s%	c #CDCDCF",
"t%	c #D8D8D8",
"u%	c #D6D6D6",
"v%	c #D0D0D2",
"w%	c #B5B5B6",
"x%	c #BEBEC0",
"y%	c #C1C1C3",
"z%	c #CDCDCE",
"A%	c #CECED0",
"B%	c #D5D5D6",
"C%	c #D1D1D2",
"D%	c #C9C9CB",
"E%	c #CFCFD0",
"F%	c #D2D2D3",
"G%	c #D6D6D7",
"                                                    . +         ",
"                              @ # $ % & * = - ; > , ' )         ",
"                    ! ~ { ] ^ / ( _ : < [ } | 1 2 3 4 5 6       ",
"    7 8 9 0 a b c d e f g h i j k l m n o p q r s t u v w       ",
"  x y z A B | C D E F G H I J K L M N O P Q Q R S T U V W       ",
"  X Y Z `  ...+.@.#.$.%.&.*.=.$.-.%.;.-.>.$.$.,.'.).!.~.{.      ",
"  ].^./.(.P Q _.,.:.<.t [.}.|.}.1.1.1.2.2.3.4.}.5.6.7.8.9.      ",
"  0.a.b.c.d.e.f.g.[.h.i.j.k.k.l.m.n.n.l.o.p.q.r.s.t.u.v.w.      ",
"  x.y.z.A.B.C.D.E.F.G.H.I.J.K.L.M.N.O.P.Q.R.S.S.T.U.V.W.X.      ",
"  Y.Z.`. +.+++++@+#+#+$+S.%+&+*+=+T.-+;+>+,+'+'+)+!+~+{+]+      ",
"  ^+/+(+_+:+<+[+}+|+1+2+3+4+5+6+7+8+9+0+a+b+c+d+e+f+g+h+i+j+    ",
"  k+l+m+n+o+p+q+r+s+t+t+u+v+w+x+y+z+A+B+C+D+E+F+G+H+I+J+K+L+    ",
"  M+N+O+P+Q+R+S+T+U+V+W+X+Y+Z+`+ @.@+@@@#@$@%@&@*@=@-@;@>@,@    ",
"    '@)@!@~@{@]@^@/@(@_@I+:@<@[@}@|@1@2@3@4@5@6@7@8@9@0@a@b@    ",
"    c@d@e@f@g@h@i@j@k@l@m@n@o@p@q@r@s@t@u@v@w@x@y@z@A@B@C@D@    ",
"    E@F@G@H@I@J@K@L@M@N@O@P@8@Q@R@S@T@U@V@y@W@X@Y@Z@`@ #.#+#    ",
"    @###$#%#&#*#=#-#x@;#>#>#,#'#)#!#~#{#]#^#/#(#_#:#<#[#}#|#1#  ",
"    2#3#4#5#6#7#8#9#0#a#b#c#d#e#f#g#h#i#j#k#l#m#n#o#p#q#r#s#t#  ",
"    u#v#w#x#y#z#A#B#C#D#E#F#G#H#I#J#K#L#M#N#O#P#Q#R#S#T#U#V#W#  ",
"    X#Y#Z#`# $.$+$@$#$$$%$&$*$=$-$;$>$,$P#'$)$)$)$)$)$)$)$!$~$  ",
"    {$]$^$/$($_$:$<$[$}$|$S#1$2$3$4$5$6$7$)$8$8$8$8$8$8$8$)$9$  ",
"      0$a$b$c$d$e$f$g$h$i$j$k$l$m$n$o$p$)$8$8$8$8$8$8$8$8$8$)$  ",
"      q$! r$s$t$u$v$w$x$y$z$A$B$C$D$E$)$8$8$8$8$8$8$8$8$8$8$8$)$",
"      @#F$G$H$I$J$K$L$M$N$O$P$Q$R$S$  )$8$8$8$8$8$8$8$8$8$8$8$)$",
"      T$U$V$W$X$Y$Z$`$ %.%+%@%#%$%%%  )$8$8$8$8$8$8$8$8$8$8$8$)$",
"      &%*%=%U$-%;%>%,%'%)%!%~%{%]%^%x.)$8$8$8$8$8$8$8$8$8$8$8$)$",
"      /%(%_%:%<%[%}%|%1%2%3%4%5%6%7%8%)$8$8$8$8$8$8$8$8$8$8$8$)$",
"                9%0%a%|%b%c%d%e%f%g%f%)$8$8$8$8$8$8$8$8$8$8$8$)$",
"              h%i%Y.X#j%8%. + f%k%l%m%)$8$8$8$8$8$8$8$8$8$8$8$)$",
"                n%].o%p%q%8 r%s%= t%u%v%)$8$8$8$8$8$8$8$8$8$)$  ",
"                  i%w%x%y%z%v%A%B%t%0 C%D%)$8$8$8$8$8$8$8$)$    ",
"                        7 Z.E%E%F%G%=       )$)$)$)$)$)$)$      "};
